<?xml version="1.0" encoding="UTF-8" standalone="no"?>
<!DOCTYPE svg PUBLIC "-//W3C//DTD SVG 1.1//EN" "http://www.w3.org/Graphics/SVG/1.1/DTD/svg11.dtd">
<svg width="100%" height="100%" viewBox="0 0 128 128" version="1.1" xmlns="http://www.w3.org/2000/svg" xmlns:xlink="http://www.w3.org/1999/xlink" xml:space="preserve" xmlns:serif="http://www.serif.com/" style="fill-rule:evenodd;clip-rule:evenodd;stroke-linejoin:round;stroke-miterlimit:2;">
    <g transform="matrix(-0.838671,0.544639,-0.544639,-0.838671,143.234,90.21)">
        <path d="M88.194,29.117C88.194,29.117 62.24,46.424 54.395,51.656C53.051,52.552 51.301,52.552 49.957,51.656C42.112,46.424 16.158,29.117 16.158,29.117C16.158,29.117 33.465,55.071 38.696,62.916C39.592,64.26 39.592,66.011 38.696,67.355C33.465,75.199 16.158,101.153 16.158,101.153C16.158,101.153 42.112,83.846 49.957,78.615C51.301,77.719 53.051,77.719 54.395,78.615C62.24,83.846 88.194,101.153 88.194,101.153C88.194,101.153 70.887,75.199 65.656,67.355C64.76,66.011 64.76,64.26 65.656,62.916C70.887,55.071 88.194,29.117 88.194,29.117Z"/>
    </g>
</svg>
